<svg width="410" height="80" viewBox="0 0 410 80" fill="none" xmlns="http://www.w3.org/2000/svg">
    <path d="M65.2727 41V62H59.9091V15.4545H65.2727V32.5455H65.7273C66.5455 30.7424 67.7727 29.3106 69.4091 28.25C71.0606 27.1742 73.2576 26.6364 76 26.6364C78.3788 26.6364 80.4621 27.1136 82.25 28.0682C84.0379 29.0076 85.4242 30.4545 86.4091 32.4091C87.4091 34.3485 87.9091 36.8182 87.9091 39.8182V62H82.5455V40.1818C82.5455 37.4091 81.8258 35.2652 80.3864 33.75C78.9621 32.2197 76.9848 31.4545 74.4545 31.4545C72.697 31.4545 71.1212 31.8258 69.7273 32.5682C68.3485 33.3106 67.2576 34.3939 66.4545 35.8182C65.6667 37.2424 65.2727 38.9697 65.2727 41ZM107.994 62.8182C105.782 62.8182 103.775 62.4015 101.972 61.5682C100.169 60.7197 98.7367 59.5 97.6761 57.9091C96.6155 56.303 96.0852 54.3636 96.0852 52.0909C96.0852 50.0909 96.4792 48.4697 97.267 47.2273C98.0549 45.9697 99.108 44.9848 100.426 44.2727C101.744 43.5606 103.199 43.0303 104.79 42.6818C106.396 42.3182 108.009 42.0303 109.631 41.8182C111.752 41.5455 113.472 41.3409 114.79 41.2045C116.123 41.053 117.093 40.803 117.699 40.4545C118.32 40.1061 118.631 39.5 118.631 38.6364V38.4545C118.631 36.2121 118.017 34.4697 116.79 33.2273C115.578 31.9848 113.737 31.3636 111.267 31.3636C108.706 31.3636 106.699 31.9242 105.244 33.0455C103.79 34.1667 102.767 35.3636 102.176 36.6364L97.0852 34.8182C97.9943 32.697 99.2064 31.0455 100.722 29.8636C102.252 28.6667 103.919 27.8333 105.722 27.3636C107.54 26.8788 109.328 26.6364 111.085 26.6364C112.206 26.6364 113.494 26.7727 114.949 27.0455C116.419 27.303 117.835 27.8409 119.199 28.6591C120.578 29.4773 121.722 30.7121 122.631 32.3636C123.54 34.0152 123.994 36.2273 123.994 39V62H118.631V57.2727H118.358C117.994 58.0303 117.388 58.8409 116.54 59.7045C115.691 60.5682 114.563 61.303 113.153 61.9091C111.744 62.5152 110.025 62.8182 107.994 62.8182ZM108.812 58C110.934 58 112.722 57.5833 114.176 56.75C115.646 55.9167 116.752 54.8409 117.494 53.5227C118.252 52.2045 118.631 50.8182 118.631 49.3636V44.4545C118.403 44.7273 117.903 44.9773 117.131 45.2045C116.373 45.4167 115.494 45.6061 114.494 45.7727C113.509 45.9242 112.547 46.0606 111.608 46.1818C110.684 46.2879 109.934 46.3788 109.358 46.4545C107.964 46.6364 106.661 46.9318 105.449 47.3409C104.252 47.7348 103.282 48.3333 102.54 49.1364C101.813 49.9242 101.449 51 101.449 52.3636C101.449 54.2273 102.138 55.6364 103.517 56.5909C104.911 57.5303 106.676 58 108.812 58ZM139.148 41V62H133.784V27.0909H138.966V32.5455H139.42C140.239 30.7727 141.481 29.3485 143.148 28.2727C144.814 27.1818 146.966 26.6364 149.602 26.6364C151.966 26.6364 154.034 27.1212 155.807 28.0909C157.58 29.0455 158.958 30.5 159.943 32.4545C160.928 34.3939 161.42 36.8485 161.42 39.8182V62H156.057V40.1818C156.057 37.4394 155.345 35.303 153.92 33.7727C152.496 32.2273 150.542 31.4545 148.057 31.4545C146.345 31.4545 144.814 31.8258 143.466 32.5682C142.133 33.3106 141.08 34.3939 140.307 35.8182C139.534 37.2424 139.148 38.9697 139.148 41ZM184.403 62.7273C181.494 62.7273 178.926 61.9924 176.699 60.5227C174.472 59.0379 172.729 56.947 171.472 54.25C170.214 51.5379 169.585 48.3333 169.585 44.6364C169.585 40.9697 170.214 37.7879 171.472 35.0909C172.729 32.3939 174.479 30.3106 176.722 28.8409C178.964 27.3712 181.555 26.6364 184.494 26.6364C186.767 26.6364 188.563 27.0152 189.881 27.7727C191.214 28.5152 192.229 29.3636 192.926 30.3182C193.638 31.2576 194.191 32.0303 194.585 32.6364H195.04V15.4545H200.403V62H195.222V56.6364H194.585C194.191 57.2727 193.631 58.0758 192.903 59.0455C192.176 60 191.138 60.8561 189.79 61.6136C188.441 62.3561 186.646 62.7273 184.403 62.7273ZM185.131 57.9091C187.282 57.9091 189.1 57.3485 190.585 56.2273C192.07 55.0909 193.199 53.5227 193.972 51.5227C194.744 49.5076 195.131 47.1818 195.131 44.5455C195.131 41.9394 194.752 39.6591 193.994 37.7045C193.237 35.7348 192.116 34.2045 190.631 33.1136C189.146 32.0076 187.313 31.4545 185.131 31.4545C182.858 31.4545 180.964 32.0379 179.449 33.2045C177.949 34.3561 176.82 35.9242 176.062 37.9091C175.32 39.8788 174.949 42.0909 174.949 44.5455C174.949 47.0303 175.328 49.2879 176.085 51.3182C176.858 53.3333 177.994 54.9394 179.494 56.1364C181.009 57.3182 182.888 57.9091 185.131 57.9091ZM216.335 15.4545V62H210.972V15.4545H216.335ZM240.795 62.7273C237.432 62.7273 234.53 61.9848 232.091 60.5C229.667 59 227.795 56.9091 226.477 54.2273C225.174 51.5303 224.523 48.3939 224.523 44.8182C224.523 41.2424 225.174 38.0909 226.477 35.3636C227.795 32.6212 229.629 30.4848 231.977 28.9545C234.341 27.4091 237.098 26.6364 240.25 26.6364C242.068 26.6364 243.864 26.9394 245.636 27.5455C247.409 28.1515 249.023 29.1364 250.477 30.5C251.932 31.8485 253.091 33.6364 253.955 35.8636C254.818 38.0909 255.25 40.8333 255.25 44.0909V46.3636H228.341V41.7273H249.795C249.795 39.7576 249.402 38 248.614 36.4545C247.841 34.9091 246.735 33.6894 245.295 32.7955C243.871 31.9015 242.189 31.4545 240.25 31.4545C238.114 31.4545 236.265 31.9848 234.705 33.0455C233.159 34.0909 231.97 35.4545 231.136 37.1364C230.303 38.8182 229.886 40.6212 229.886 42.5455V45.6364C229.886 48.2727 230.341 50.5076 231.25 52.3409C232.174 54.1591 233.455 55.5455 235.091 56.5C236.727 57.4394 238.629 57.9091 240.795 57.9091C242.205 57.9091 243.477 57.7121 244.614 57.3182C245.765 56.9091 246.758 56.303 247.591 55.5C248.424 54.6818 249.068 53.6667 249.523 52.4545L254.705 53.9091C254.159 55.6667 253.242 57.2121 251.955 58.5455C250.667 59.8636 249.076 60.8939 247.182 61.6364C245.288 62.3636 243.159 62.7273 240.795 62.7273Z" fill="#FAFAFA"/>
    <path d="M260.773 23.5682V15.4545H299V23.5682H284.75V62H275.023V23.5682H260.773ZM310.318 62.6591C308.091 62.6591 306.106 62.2727 304.364 61.5C302.621 60.7121 301.242 59.553 300.227 58.0227C299.227 56.4773 298.727 54.553 298.727 52.25C298.727 50.3106 299.083 48.6818 299.795 47.3636C300.508 46.0455 301.477 44.9848 302.705 44.1818C303.932 43.3788 305.326 42.7727 306.886 42.3636C308.462 41.9545 310.114 41.6667 311.841 41.5C313.871 41.2879 315.508 41.0909 316.75 40.9091C317.992 40.7121 318.894 40.4242 319.455 40.0455C320.015 39.6667 320.295 39.1061 320.295 38.3636V38.2273C320.295 36.7879 319.841 35.6742 318.932 34.8864C318.038 34.0985 316.765 33.7045 315.114 33.7045C313.371 33.7045 311.985 34.0909 310.955 34.8636C309.924 35.6212 309.242 36.5758 308.909 37.7273L299.955 37C300.409 34.8788 301.303 33.0455 302.636 31.5C303.97 29.9394 305.689 28.7424 307.795 27.9091C309.917 27.0606 312.371 26.6364 315.159 26.6364C317.098 26.6364 318.955 26.8636 320.727 27.3182C322.515 27.7727 324.098 28.4773 325.477 29.4318C326.871 30.3864 327.97 31.6136 328.773 33.1136C329.576 34.5985 329.977 36.3788 329.977 38.4545V62H320.795V57.1591H320.523C319.962 58.25 319.212 59.2121 318.273 60.0455C317.333 60.8636 316.205 61.5076 314.886 61.9773C313.568 62.4318 312.045 62.6591 310.318 62.6591ZM313.091 55.9773C314.515 55.9773 315.773 55.697 316.864 55.1364C317.955 54.5606 318.811 53.7879 319.432 52.8182C320.053 51.8485 320.364 50.75 320.364 49.5227V45.8182C320.061 46.0152 319.644 46.197 319.114 46.3636C318.598 46.5152 318.015 46.6591 317.364 46.7955C316.712 46.9167 316.061 47.0303 315.409 47.1364C314.758 47.2273 314.167 47.3106 313.636 47.3864C312.5 47.553 311.508 47.8182 310.659 48.1818C309.811 48.5455 309.152 49.0379 308.682 49.6591C308.212 50.2652 307.977 51.0227 307.977 51.9318C307.977 53.25 308.455 54.2576 309.409 54.9545C310.379 55.6364 311.606 55.9773 313.091 55.9773ZM366.534 37.0455L357.67 37.5909C357.519 36.8333 357.193 36.1515 356.693 35.5455C356.193 34.9242 355.534 34.4318 354.716 34.0682C353.913 33.6894 352.951 33.5 351.83 33.5C350.33 33.5 349.064 33.8182 348.034 34.4545C347.004 35.0758 346.489 35.9091 346.489 36.9545C346.489 37.7879 346.822 38.4924 347.489 39.0682C348.155 39.6439 349.299 40.1061 350.92 40.4545L357.239 41.7273C360.633 42.4242 363.163 43.5455 364.83 45.0909C366.496 46.6364 367.33 48.6667 367.33 51.1818C367.33 53.4697 366.655 55.4773 365.307 57.2045C363.973 58.9318 362.14 60.2803 359.807 61.25C357.489 62.2045 354.814 62.6818 351.784 62.6818C347.163 62.6818 343.481 61.7197 340.739 59.7955C338.011 57.8561 336.413 55.2197 335.943 51.8864L345.466 51.3864C345.754 52.7955 346.451 53.8712 347.557 54.6136C348.663 55.3409 350.08 55.7045 351.807 55.7045C353.504 55.7045 354.867 55.3788 355.898 54.7273C356.943 54.0606 357.473 53.2045 357.489 52.1591C357.473 51.2803 357.102 50.5606 356.375 50C355.648 49.4242 354.527 48.9848 353.011 48.6818L346.966 47.4773C343.557 46.7955 341.019 45.6136 339.352 43.9318C337.701 42.25 336.875 40.1061 336.875 37.5C336.875 35.2576 337.481 33.3258 338.693 31.7045C339.92 30.0833 341.64 28.8333 343.852 27.9545C346.08 27.0758 348.686 26.6364 351.67 26.6364C356.08 26.6364 359.549 27.5682 362.08 29.4318C364.625 31.2955 366.11 33.8333 366.534 37.0455ZM382.199 51.9545L382.222 40.3409H383.631L394.812 27.0909H405.926L390.903 44.6364H388.608L382.199 51.9545ZM373.426 62V15.4545H383.108V62H373.426ZM395.244 62L384.972 46.7955L391.426 39.9545L406.585 62H395.244Z" fill="#138DF0"/>
    <path d="M44.3402 41.0234V42.9351C44.3377 47.4159 42.9304 51.776 40.3281 55.3648C37.7257 58.9537 34.0679 61.5792 29.9001 62.8497C25.7323 64.1202 21.2777 63.9676 17.2009 62.4147C13.124 60.8619 9.64326 57.9919 7.27772 54.2329C4.91218 50.4738 3.78861 46.0271 4.07457 41.556C4.36054 37.0848 6.04072 32.8287 8.86453 29.4225C11.6883 26.0162 15.5045 23.6424 19.7438 22.6548C23.9832 21.6673 28.4185 22.1191 32.3885 23.9429M44.3402 26.3117L24.1855 47.1117L18.1391 40.8779" stroke="#138DF0" stroke-width="4" stroke-linecap="round" stroke-linejoin="round"/>
</svg>
